<svg 
    focusable="false" 
    class="rds-svg--bus-icon" 
    width="32" height="32" 
    viewBox="0 0 32 32">
    <path 
        d="M11.625 22.812a2.188 2.188 0 11-2.188-2.188 2.188 2.188 0 012.188 2.188zM29.429 10H2.572a.574.574 0 00-.572.573v11.228a.575.575 0 00.572.573h3.347a3.543 3.543 0 017.037 0h6.088a3.543 3.543 0 017.037 0h3.348a.575.575 0 00.571-.573V10.574a.574.574 0 00-.57-.574zM8.848 17H3.259v-4.647h5.589zm6.632 0H9.892v-4.647h5.588zm6.641 0h-5.6v-4.647h5.6zm6.621 0h-5.59v-4.647h5.59zm-3.992 5.812a2.188 2.188 0 11-2.188-2.188 2.188 2.188 0 012.188 2.188z">
    </path>
</svg>