<svg focusable="false" class="rds-svg--walk-icon" width="32" height="32" viewBox="0 0 32 32"><path d="M12.22 9.094a.841.841 0 00-.536.498l-2.16 5.196a.874.874 0 101.614.668l2.01-4.833 1.544-.515-2.139 5.581a2.385 2.385 0 00.211 2.104L7.73 28.205a1.25 1.25 0 002.251 1.089l4.658-9.635 5.072 9.672a1.25 1.25 0 001.688.527l.014-.008a1.25 1.25 0 00.513-1.68l-5.162-9.842 2.137-5.575.466 1.598a.82.82 0 00.476.52l3.321 1.777a.874.874 0 10.713-1.595l-2.948-1.578-1.216-4.179a2.451 2.451 0 00-3.038-1.669 2.393 2.393 0 00-.083.026zm7.187-7.093a2.5 2.5 0 11-2.5 2.5 2.5 2.5 0 012.5-2.5z"></path></svg>