<svg width="182" height="255" viewBox="0 0 182 255" fill="none" xmlns="http://www.w3.org/2000/svg">
<path d="M91 0C40.8249 0 0 39.0768 0 87.0903C0 109.956 10.4138 140.363 30.9514 177.471C47.4451 207.264 66.5267 234.205 76.4514 247.61C78.1284 249.9 80.3212 251.763 82.8518 253.047C85.3824 254.331 88.1798 255 91.0171 255C93.8543 255 96.6517 254.331 99.1823 253.047C101.713 251.763 103.906 249.9 105.583 247.61C115.49 234.205 134.589 207.264 151.083 177.471C171.586 140.375 182 109.967 182 87.0903C182 39.0768 141.175 0 91 0ZM91 127.505C83.8008 127.505 76.7632 125.368 70.7773 121.365C64.7913 117.362 60.1258 111.673 57.3708 105.016C54.6158 98.3593 53.8949 91.0344 55.2994 83.9677C56.7039 76.901 60.1707 70.4098 65.2613 65.315C70.3519 60.2202 76.8378 56.7505 83.8987 55.3449C90.9596 53.9392 98.2784 54.6607 104.93 57.418C111.581 60.1753 117.266 64.8446 121.265 70.8354C125.265 76.8263 127.4 83.8697 127.4 91.0748C127.389 100.733 123.551 109.993 116.727 116.823C109.903 123.653 100.651 127.494 91 127.505Z" fill="#E1E2EC"/>
</svg>
